<?xml version="1.0" encoding="utf-8"?>
<svg width="89.0mm" height="50.9mm" viewBox="-0.05 -50.85 89.0 50.9" style="background-color:transparent" xmlns="http://www.w3.org/2000/svg" xmlns:xlink="http://www.w3.org/1999/xlink">
  <defs>
    <filter id="f-copper">
                    <feFlood result="flood-black" flood-color="black" flood-opacity="1"/>
                    <feFlood result="flood-green" flood-color="#000000"/>
                    <feBlend in="SourceGraphic" in2="flood-black" result="overlay" mode="normal"/>
                    <feBlend in="overlay" in2="flood-green" result="colored" mode="multiply"/>
                    <feColorMatrix in="overlay" type="matrix" result="alphaOut" values="0 0 0 0 0
                    0 0 0 0 0
                    0 0 0 0 0
                    1 0 0 0 0"/>
                    <feComposite in="colored" in2="alphaOut" operator="in"/>
                    </filter>
    <filter id="f-mask">
                    <feFlood result="flood-black" flood-color="black" flood-opacity="1"/>
                    <feFlood result="flood-green" flood-color="#c8a24a"/>
                    <feBlend in="SourceGraphic" in2="flood-black" result="overlay" mode="normal"/>
                    <feBlend in="overlay" in2="flood-green" result="colored" mode="multiply"/>
                    <feColorMatrix in="overlay" type="matrix" result="alphaOut" values="0 0 0 0 0
                    0 0 0 0 0
                    0 0 0 0 0
                    0.7490196078431373 0 0 0 0"/>
                    <feComposite in="colored" in2="alphaOut" operator="in"/>
                    </filter>
    <filter id="f-paste">
                    <feFlood result="flood-black" flood-color="black" flood-opacity="1"/>
                    <feFlood result="flood-green" flood-color="#000000"/>
                    <feBlend in="SourceGraphic" in2="flood-black" result="overlay" mode="normal"/>
                    <feBlend in="overlay" in2="flood-green" result="colored" mode="multiply"/>
                    <feColorMatrix in="overlay" type="matrix" result="alphaOut" values="0 0 0 0 0
                    0 0 0 0 0
                    0 0 0 0 0
                    1 0 0 0 0"/>
                    <feComposite in="colored" in2="alphaOut" operator="in"/>
                    </filter>
    <filter id="f-silk">
                    <feFlood result="flood-black" flood-color="black" flood-opacity="1"/>
                    <feFlood result="flood-green" flood-color="#000000"/>
                    <feBlend in="SourceGraphic" in2="flood-black" result="overlay" mode="normal"/>
                    <feBlend in="overlay" in2="flood-green" result="colored" mode="multiply"/>
                    <feColorMatrix in="overlay" type="matrix" result="alphaOut" values="0 0 0 0 0
                    0 0 0 0 0
                    0 0 0 0 0
                    1 0 0 0 0"/>
                    <feComposite in="colored" in2="alphaOut" operator="in"/>
                    </filter>
    <filter id="f-drill">
                    <feFlood result="flood-black" flood-color="black" flood-opacity="1"/>
                    <feFlood result="flood-green" flood-color="#f5f1e4"/>
                    <feBlend in="SourceGraphic" in2="flood-black" result="overlay" mode="normal"/>
                    <feBlend in="overlay" in2="flood-green" result="colored" mode="multiply"/>
                    <feColorMatrix in="overlay" type="matrix" result="alphaOut" values="0 0 0 0 0
                    0 0 0 0 0
                    0 0 0 0 0
                    1 0 0 0 0"/>
                    <feComposite in="colored" in2="alphaOut" operator="in"/>
                    </filter>
    <filter id="f-outline">
                    <feFlood result="flood-black" flood-color="black" flood-opacity="1"/>
                    <feFlood result="flood-green" flood-color="#000000"/>
                    <feBlend in="SourceGraphic" in2="flood-black" result="overlay" mode="normal"/>
                    <feBlend in="overlay" in2="flood-green" result="colored" mode="multiply"/>
                    <feColorMatrix in="overlay" type="matrix" result="alphaOut" values="0 0 0 0 0
                    0 0 0 0 0
                    0 0 0 0 0
                    1 0 0 0 0"/>
                    <feComposite in="colored" in2="alphaOut" operator="in"/>
                    </filter>
    <g id="a0">
      <rect x="-0.65" y="-0.775" width="1.3" height="1.55" fill="white"/>
    </g>
    <g id="a1">
      <rect x="-2.55" y="-2.55" width="5.1" height="5.1" fill="white"/>
    </g>
    <g id="a2">
      <circle cx="0.0" cy="0.0" r="8.9" fill="white"/>
    </g>
    <g id="a3">
      <path d="M -0.45 0.325 L -0.45 -0.325 L 0.45 -0.325 L 0.45 0.325 L -0.45 0.325" fill="white"/>
      <circle cx="-0.45" cy="0.325" r="0.25" fill="white"/>
      <circle cx="-0.45" cy="-0.325" r="0.25" fill="white"/>
      <circle cx="0.45" cy="-0.325" r="0.25" fill="white"/>
      <circle cx="0.45" cy="0.325" r="0.25" fill="white"/>
      <rect x="-0.775" y="-0.25" width="0.65" height="0.5" transform="rotate(-90.0 -0.45 0.0)" fill="white"/>
      <rect x="-0.45" y="-0.575" width="0.9" height="0.5" fill="white"/>
      <rect x="0.125" y="-0.25" width="0.65" height="0.5" transform="rotate(90.0 0.45 0.0)" fill="white"/>
      <rect x="-0.45" y="0.075" width="0.9" height="0.5" transform="rotate(180.0 0.0 0.325)" fill="white"/>
    </g>
    <g id="a4">
      <path d="M -0.35 -0.45 L 0.35 -0.45 L 0.35 0.45 L -0.35 0.45 L -0.35 -0.45" fill="white"/>
      <circle cx="-0.35" cy="-0.45" r="0.25" fill="white"/>
      <circle cx="0.35" cy="-0.45" r="0.25" fill="white"/>
      <circle cx="0.35" cy="0.45" r="0.25" fill="white"/>
      <circle cx="-0.35" cy="0.45" r="0.25" fill="white"/>
      <rect x="-0.35" y="-0.7" width="0.7" height="0.5" fill="white"/>
      <rect x="-0.1" y="-0.25" width="0.9" height="0.5" transform="rotate(90.0 0.35 0.0)" fill="white"/>
      <rect x="-0.35" y="0.2" width="0.7" height="0.5" transform="rotate(180.0 0.0 0.45)" fill="white"/>
      <rect x="-0.8" y="-0.25" width="0.9" height="0.5" transform="rotate(-90.0 -0.35 0.0)" fill="white"/>
    </g>
    <g id="a5">
      <circle cx="0.0" cy="0.0" r="0.125" fill="white"/>
    </g>
    <g id="a6">
      <circle cx="0.0" cy="0.0" r="2.56299" fill="black"/>
    </g>
    <g id="a7">
      <rect x="-0.65" y="-0.775" width="1.3" height="1.55" fill="black"/>
    </g>
    <g id="a8">
      <rect x="-2.55" y="-2.55" width="5.1" height="5.1" fill="black"/>
    </g>
    <g id="a9">
      <circle cx="0.0" cy="0.0" r="8.9" fill="black"/>
    </g>
    <g id="a10">
      <path d="M -0.45 0.325 L -0.45 -0.325 L 0.45 -0.325 L 0.45 0.325 L -0.45 0.325" fill="black"/>
      <circle cx="-0.45" cy="0.325" r="0.25" fill="black"/>
      <circle cx="-0.45" cy="-0.325" r="0.25" fill="black"/>
      <circle cx="0.45" cy="-0.325" r="0.25" fill="black"/>
      <circle cx="0.45" cy="0.325" r="0.25" fill="black"/>
      <rect x="-0.775" y="-0.25" width="0.65" height="0.5" transform="rotate(-90.0 -0.45 0.0)" fill="black"/>
      <rect x="-0.45" y="-0.575" width="0.9" height="0.5" fill="black"/>
      <rect x="0.125" y="-0.25" width="0.65" height="0.5" transform="rotate(90.0 0.45 0.0)" fill="black"/>
      <rect x="-0.45" y="0.075" width="0.9" height="0.5" transform="rotate(180.0 0.0 0.325)" fill="black"/>
    </g>
    <g id="a11">
      <path d="M -0.35 -0.45 L 0.35 -0.45 L 0.35 0.45 L -0.35 0.45 L -0.35 -0.45" fill="black"/>
      <circle cx="-0.35" cy="-0.45" r="0.25" fill="black"/>
      <circle cx="0.35" cy="-0.45" r="0.25" fill="black"/>
      <circle cx="0.35" cy="0.45" r="0.25" fill="black"/>
      <circle cx="-0.35" cy="0.45" r="0.25" fill="black"/>
      <rect x="-0.35" y="-0.7" width="0.7" height="0.5" fill="black"/>
      <rect x="-0.1" y="-0.25" width="0.9" height="0.5" transform="rotate(90.0 0.35 0.0)" fill="black"/>
      <rect x="-0.35" y="0.2" width="0.7" height="0.5" transform="rotate(180.0 0.0 0.45)" fill="black"/>
      <rect x="-0.8" y="-0.25" width="0.9" height="0.5" transform="rotate(-90.0 -0.35 0.0)" fill="black"/>
    </g>
    <g id="a12">
      <circle cx="0.0" cy="0.0" r="0.25" fill="white"/>
    </g>
    <g id="a13">
      <circle cx="0.0" cy="0.0" r="0.075" fill="white"/>
    </g>
    <g id="a14">
      <circle cx="0.0" cy="0.0" r="0.06" fill="white"/>
    </g>
    <g id="a15">
      <rect x="-0.65" y="-0.775" width="1.3" height="1.55" fill="white"/>
    </g>
    <g id="a16">
      <rect x="-2.55" y="-2.55" width="5.1" height="5.1" fill="white"/>
    </g>
    <g id="a17">
      <path d="M -0.45 0.325 L -0.45 -0.325 L 0.45 -0.325 L 0.45 0.325 L -0.45 0.325" fill="white"/>
      <circle cx="-0.45" cy="0.325" r="0.25" fill="white"/>
      <circle cx="-0.45" cy="-0.325" r="0.25" fill="white"/>
      <circle cx="0.45" cy="-0.325" r="0.25" fill="white"/>
      <circle cx="0.45" cy="0.325" r="0.25" fill="white"/>
      <rect x="-0.775" y="-0.25" width="0.65" height="0.5" transform="rotate(-90.0 -0.45 0.0)" fill="white"/>
      <rect x="-0.45" y="-0.575" width="0.9" height="0.5" fill="white"/>
      <rect x="0.125" y="-0.25" width="0.65" height="0.5" transform="rotate(90.0 0.45 0.0)" fill="white"/>
      <rect x="-0.45" y="0.075" width="0.9" height="0.5" transform="rotate(180.0 0.0 0.325)" fill="white"/>
    </g>
    <g id="a18">
      <path d="M -0.35 -0.45 L 0.35 -0.45 L 0.35 0.45 L -0.35 0.45 L -0.35 -0.45" fill="white"/>
      <circle cx="-0.35" cy="-0.45" r="0.25" fill="white"/>
      <circle cx="0.35" cy="-0.45" r="0.25" fill="white"/>
      <circle cx="0.35" cy="0.45" r="0.25" fill="white"/>
      <circle cx="-0.35" cy="0.45" r="0.25" fill="white"/>
      <rect x="-0.35" y="-0.7" width="0.7" height="0.5" fill="white"/>
      <rect x="-0.1" y="-0.25" width="0.9" height="0.5" transform="rotate(90.0 0.35 0.0)" fill="white"/>
      <rect x="-0.35" y="0.2" width="0.7" height="0.5" transform="rotate(180.0 0.0 0.45)" fill="white"/>
      <rect x="-0.8" y="-0.25" width="0.9" height="0.5" transform="rotate(-90.0 -0.35 0.0)" fill="white"/>
    </g>
  </defs>
  <g transform="translate(88.9 0) scale(-1 1)">
    <g id="l-bottom-copper" filter="url(#f-copper)" fill="white" stroke="none" stroke-linejoin="round" stroke-linecap="round" fill-rule="evenodd" transform="translate(0 -50.800000000000004) scale(1 -1)">
      <rect x="14.3" y="-30.15" width="1.3" height="1.55"/>
      <rect x="14.3" y="-22.2" width="1.3" height="1.55"/>
      <rect x="9.8" y="-22.2" width="1.3" height="1.55"/>
      <rect x="9.8" y="-30.15" width="1.3" height="1.55"/>
      <rect x="66.665" y="-40.75" width="5.1" height="5.1"/>
      <rect x="66.665" y="-15.15" width="5.1" height="5.1"/>
      <circle cx="69.215" cy="-25.4" r="8.9"/>
      <path d="M 38.75 -26.1 L 38.75 -26.75 L 39.65 -26.75 L 39.65 -26.1 L 38.75 -26.1"/>
      <circle cx="38.75" cy="-26.1" r="0.25"/>
      <circle cx="38.75" cy="-26.75" r="0.25"/>
      <circle cx="39.65" cy="-26.75" r="0.25"/>
      <circle cx="39.65" cy="-26.1" r="0.25"/>
      <rect x="38.425" y="-26.675" width="0.65" height="0.5" transform="rotate(-90.0 38.75 -26.425)"/>
      <rect x="38.75" y="-27.0" width="0.9" height="0.5"/>
      <rect x="39.325" y="-26.675" width="0.65" height="0.5" transform="rotate(90.0 39.65 -26.425)"/>
      <rect x="38.75" y="-26.35" width="0.9" height="0.5" transform="rotate(180.0 39.2 -26.1)"/>
      <path d="M 38.75 -24.05 L 38.75 -24.7 L 39.65 -24.7 L 39.65 -24.05 L 38.75 -24.05"/>
      <circle cx="38.75" cy="-24.05" r="0.25"/>
      <circle cx="38.75" cy="-24.7" r="0.25"/>
      <circle cx="39.65" cy="-24.7" r="0.25"/>
      <circle cx="39.65" cy="-24.05" r="0.25"/>
      <rect x="38.425" y="-24.625" width="0.65" height="0.5" transform="rotate(-90.0 38.75 -24.375)"/>
      <rect x="38.75" y="-24.95" width="0.9" height="0.5"/>
      <rect x="39.325" y="-24.625" width="0.65" height="0.5" transform="rotate(90.0 39.65 -24.375)"/>
      <rect x="38.75" y="-24.3" width="0.9" height="0.5" transform="rotate(180.0 39.2 -24.05)"/>
      <path d="M 51.35 -26.1 L 51.35 -26.75 L 52.25 -26.75 L 52.25 -26.1 L 51.35 -26.1"/>
      <circle cx="51.35" cy="-26.1" r="0.25"/>
      <circle cx="51.35" cy="-26.75" r="0.25"/>
      <circle cx="52.25" cy="-26.75" r="0.25"/>
      <circle cx="52.25" cy="-26.1" r="0.25"/>
      <rect x="51.025" y="-26.675" width="0.65" height="0.5" transform="rotate(-90.0 51.35 -26.425)"/>
      <rect x="51.35" y="-27.0" width="0.9" height="0.5"/>
      <rect x="51.925" y="-26.675" width="0.65" height="0.5" transform="rotate(90.0 52.25 -26.425)"/>
      <rect x="51.35" y="-26.35" width="0.9" height="0.5" transform="rotate(180.0 51.8 -26.1)"/>
      <path d="M 51.35 -24.05 L 51.35 -24.7 L 52.25 -24.7 L 52.25 -24.05 L 51.35 -24.05"/>
      <circle cx="51.35" cy="-24.05" r="0.25"/>
      <circle cx="51.35" cy="-24.7" r="0.25"/>
      <circle cx="52.25" cy="-24.7" r="0.25"/>
      <circle cx="52.25" cy="-24.05" r="0.25"/>
      <rect x="51.025" y="-24.625" width="0.65" height="0.5" transform="rotate(-90.0 51.35 -24.375)"/>
      <rect x="51.35" y="-24.95" width="0.9" height="0.5"/>
      <rect x="51.925" y="-24.625" width="0.65" height="0.5" transform="rotate(90.0 52.25 -24.375)"/>
      <rect x="51.35" y="-24.3" width="0.9" height="0.5" transform="rotate(180.0 51.8 -24.05)"/>
      <path d="M 19.605 -23.31 L 20.305 -23.31 L 20.305 -22.41 L 19.605 -22.41 L 19.605 -23.31"/>
      <circle cx="19.605" cy="-23.31" r="0.25"/>
      <circle cx="20.305" cy="-23.31" r="0.25"/>
      <circle cx="20.305" cy="-22.41" r="0.25"/>
      <circle cx="19.605" cy="-22.41" r="0.25"/>
      <rect x="19.605" y="-23.56" width="0.7" height="0.5"/>
      <rect x="19.855" y="-23.11" width="0.9" height="0.5" transform="rotate(90.0 20.305 -22.86)"/>
      <rect x="19.605" y="-22.66" width="0.7" height="0.5" transform="rotate(180.0 19.955 -22.41)"/>
      <rect x="19.155" y="-23.11" width="0.9" height="0.5" transform="rotate(-90.0 19.605 -22.86)"/>
      <path d="M 21.605 -23.31 L 22.305 -23.31 L 22.305 -22.41 L 21.605 -22.41 L 21.605 -23.31"/>
      <circle cx="21.605" cy="-23.31" r="0.25"/>
      <circle cx="22.305" cy="-23.31" r="0.25"/>
      <circle cx="22.305" cy="-22.41" r="0.25"/>
      <circle cx="21.605" cy="-22.41" r="0.25"/>
      <rect x="21.605" y="-23.56" width="0.7" height="0.5"/>
      <rect x="21.855" y="-23.11" width="0.9" height="0.5" transform="rotate(90.0 22.305 -22.86)"/>
      <rect x="21.605" y="-22.66" width="0.7" height="0.5" transform="rotate(180.0 21.955 -22.41)"/>
      <rect x="21.155" y="-23.11" width="0.9" height="0.5" transform="rotate(-90.0 21.605 -22.86)"/>
      <path d="M 19.605 -28.39 L 20.305 -28.39 L 20.305 -27.49 L 19.605 -27.49 L 19.605 -28.39"/>
      <circle cx="19.605" cy="-28.39" r="0.25"/>
      <circle cx="20.305" cy="-28.39" r="0.25"/>
      <circle cx="20.305" cy="-27.49" r="0.25"/>
      <circle cx="19.605" cy="-27.49" r="0.25"/>
      <rect x="19.605" y="-28.64" width="0.7" height="0.5"/>
      <rect x="19.855" y="-28.19" width="0.9" height="0.5" transform="rotate(90.0 20.305 -27.94)"/>
      <rect x="19.605" y="-27.74" width="0.7" height="0.5" transform="rotate(180.0 19.955 -27.49)"/>
      <rect x="19.155" y="-28.19" width="0.9" height="0.5" transform="rotate(-90.0 19.605 -27.94)"/>
      <path d="M 21.605 -28.39 L 22.305 -28.39 L 22.305 -27.49 L 21.605 -27.49 L 21.605 -28.39"/>
      <circle cx="21.605" cy="-28.39" r="0.25"/>
      <circle cx="22.305" cy="-28.39" r="0.25"/>
      <circle cx="22.305" cy="-27.49" r="0.25"/>
      <circle cx="21.605" cy="-27.49" r="0.25"/>
      <rect x="21.605" y="-28.64" width="0.7" height="0.5"/>
      <rect x="21.855" y="-28.19" width="0.9" height="0.5" transform="rotate(90.0 22.305 -27.94)"/>
      <rect x="21.605" y="-27.74" width="0.7" height="0.5" transform="rotate(180.0 21.955 -27.49)"/>
      <rect x="21.155" y="-28.19" width="0.9" height="0.5" transform="rotate(-90.0 21.605 -27.94)"/>
      <path d="M 19.955 -22.86 L 19.955 -27.94" fill="none" stroke="white" stroke-linecap="round" stroke-linejoin="round" stroke-width="0.25"/>
      <path d="M 17.7 -21.45 L 14.95 -21.425" fill="none" stroke="white" stroke-linecap="round" stroke-linejoin="round" stroke-width="0.25"/>
      <path d="M 17.7 -22.85 L 17.7 -21.45" fill="none" stroke="white" stroke-linecap="round" stroke-linejoin="round" stroke-width="0.25"/>
      <path d="M 19.955 -22.86 L 17.7 -22.85" fill="none" stroke="white" stroke-linecap="round" stroke-linejoin="round" stroke-width="0.25"/>
      <path d="M 21.95 -26.45 L 21.955 -27.94" fill="none" stroke="white" stroke-linecap="round" stroke-linejoin="round" stroke-width="0.25"/>
      <path d="M 31.2166 -26.4414 L 21.95 -26.45" fill="none" stroke="white" stroke-linecap="round" stroke-linejoin="round" stroke-width="0.25"/>
      <path d="M 21.95 -24.55 L 21.955 -22.86" fill="none" stroke="white" stroke-linecap="round" stroke-linejoin="round" stroke-width="0.25"/>
      <path d="M 31.1912 -24.5618 L 21.95 -24.55" fill="none" stroke="white" stroke-linecap="round" stroke-linejoin="round" stroke-width="0.25"/>
      <path d="M 51.8 -24.375 L 56.642 -24.358" fill="none" stroke="white" stroke-linecap="round" stroke-linejoin="round" stroke-width="0.25"/>
      <path d="M 56.642 -22.098 L 56.642 -24.358 L 56.642 -28.448" fill="none" stroke="white" stroke-linecap="round" stroke-linejoin="round" stroke-width="0.25"/>
      <path d="M 56.642 -22.098 L 48.2346 -19.2532" fill="none" stroke="white" stroke-linecap="round" stroke-linejoin="round" stroke-width="0.25"/>
      <path d="M 55.4 -26.4 L 51.8 -26.425" fill="none" stroke="white" stroke-linecap="round" stroke-linejoin="round" stroke-width="0.25"/>
      <path d="M 55.4 -28.9 L 55.4 -26.4" fill="none" stroke="white" stroke-linecap="round" stroke-linejoin="round" stroke-width="0.25"/>
      <path d="M 48.26 -31.4452 L 55.4 -28.9" fill="none" stroke="white" stroke-linecap="round" stroke-linejoin="round" stroke-width="0.25"/>
      <path d="M 39.2 -20.9 L 39.2 -24.375" fill="none" stroke="white" stroke-linecap="round" stroke-linejoin="round" stroke-width="0.25"/>
      <path d="M 48.2346 -19.2532 L 39.2 -20.9" fill="none" stroke="white" stroke-linecap="round" stroke-linejoin="round" stroke-width="0.25"/>
      <path d="M 39.2 -27.7 L 39.2 -26.425" fill="none" stroke="white" stroke-linecap="round" stroke-linejoin="round" stroke-width="0.25"/>
      <path d="M 37.9 -21.1 L 37.9 -27.5 L 39.2 -27.7" fill="none" stroke="white" stroke-linecap="round" stroke-linejoin="round" stroke-width="0.25"/>
      <path d="M 31.1912 -22.1742 L 37.9 -21.1" fill="none" stroke="white" stroke-linecap="round" stroke-linejoin="round" stroke-width="0.25"/>
      <path d="M 69.215 -42.545 L 8.255 -42.545" fill="none" stroke="white" stroke-linecap="round" stroke-linejoin="round" stroke-width="0.25"/>
      <path d="M 3.81 -31.115 L 3.81 -19.685" fill="none" stroke="white" stroke-linecap="round" stroke-linejoin="round" stroke-width="0.25"/>
      <path d="M 5.5118 -21.4376 L 5.5118 -29.3878" fill="none" stroke="white" stroke-linecap="round" stroke-linejoin="round" stroke-width="0.25"/>
      <path d="M 8.255 -31.115 L 3.81 -31.115" fill="none" stroke="white" stroke-linecap="round" stroke-linejoin="round" stroke-width="0.25"/>
      <path d="M 5.5118 -29.3878 L 10.45 -29.375" fill="none" stroke="white" stroke-linecap="round" stroke-linejoin="round" stroke-width="0.25"/>
      <path d="M 8.255 -42.545 L 8.255 -31.115" fill="none" stroke="white" stroke-linecap="round" stroke-linejoin="round" stroke-width="0.25"/>
      <path d="M 8.255 -19.685 L 8.255 -5.715" fill="none" stroke="white" stroke-linecap="round" stroke-linejoin="round" stroke-width="0.25"/>
      <path d="M 69.215 -5.715 L 69.215 -12.6" fill="none" stroke="white" stroke-linecap="round" stroke-linejoin="round" stroke-width="0.25"/>
      <path d="M 10.45 -21.425 L 5.5118 -21.4376" fill="none" stroke="white" stroke-linecap="round" stroke-linejoin="round" stroke-width="0.25"/>
      <path d="M 10.45 -29.375 L 10.4648 -38.1762" fill="none" stroke="white" stroke-linecap="round" stroke-linejoin="round" stroke-width="0.25"/>
      <path d="M 3.81 -19.685 L 8.255 -19.685" fill="none" stroke="white" stroke-linecap="round" stroke-linejoin="round" stroke-width="0.25"/>
      <path d="M 69.215 -38.2 L 69.215 -42.545" fill="none" stroke="white" stroke-linecap="round" stroke-linejoin="round" stroke-width="0.25"/>
      <path d="M 8.255 -5.715 L 69.215 -5.715" fill="none" stroke="white" stroke-linecap="round" stroke-linejoin="round" stroke-width="0.25"/>
      <path d="M 10.4648 -38.1762 L 69.215 -38.2" fill="none" stroke="white" stroke-linecap="round" stroke-linejoin="round" stroke-width="0.25"/>
      <path d="M 58.166 -25.4 L 69.215 -25.4" fill="none" stroke="white" stroke-linecap="round" stroke-linejoin="round" stroke-width="0.25"/>
      <path d="M 56.642 -28.448 L 58.166 -27.94 L 58.166 -25.4" fill="none" stroke="white" stroke-linecap="round" stroke-linejoin="round" stroke-width="0.25"/>
      <path d="M 31.2166 -28.4988 L 48.26 -31.4452" fill="none" stroke="white" stroke-linecap="round" stroke-linejoin="round" stroke-width="0.25"/>
      <path d="M 31.2166 -26.4414 L 31.2166 -28.4988" fill="none" stroke="white" stroke-linecap="round" stroke-linejoin="round" stroke-width="0.25"/>
      <path d="M 31.1912 -22.1742 L 31.1912 -24.5618" fill="none" stroke="white" stroke-linecap="round" stroke-linejoin="round" stroke-width="0.25"/>
      <path d="M 14.95 -21.425 L 14.95 -29.375" fill="none" stroke="white" stroke-linecap="round" stroke-linejoin="round" stroke-width="0.25"/>
    </g>
    <g id="l-bottom-paste" filter="url(#f-paste)" fill="white" stroke="none" stroke-linejoin="round" stroke-linecap="round" fill-rule="evenodd" transform="translate(0 -50.800000000000004) scale(1 -1)">
      <rect x="14.3" y="-30.15" width="1.3" height="1.55"/>
      <rect x="14.3" y="-22.2" width="1.3" height="1.55"/>
      <rect x="9.8" y="-22.2" width="1.3" height="1.55"/>
      <rect x="9.8" y="-30.15" width="1.3" height="1.55"/>
      <rect x="66.665" y="-40.75" width="5.1" height="5.1"/>
      <rect x="66.665" y="-15.15" width="5.1" height="5.1"/>
      <path d="M 38.75 -26.1 L 38.75 -26.75 L 39.65 -26.75 L 39.65 -26.1 L 38.75 -26.1"/>
      <circle cx="38.75" cy="-26.1" r="0.25"/>
      <circle cx="38.75" cy="-26.75" r="0.25"/>
      <circle cx="39.65" cy="-26.75" r="0.25"/>
      <circle cx="39.65" cy="-26.1" r="0.25"/>
      <rect x="38.425" y="-26.675" width="0.65" height="0.5" transform="rotate(-90.0 38.75 -26.425)"/>
      <rect x="38.75" y="-27.0" width="0.9" height="0.5"/>
      <rect x="39.325" y="-26.675" width="0.65" height="0.5" transform="rotate(90.0 39.65 -26.425)"/>
      <rect x="38.75" y="-26.35" width="0.9" height="0.5" transform="rotate(180.0 39.2 -26.1)"/>
      <path d="M 38.75 -24.05 L 38.75 -24.7 L 39.65 -24.7 L 39.65 -24.05 L 38.75 -24.05"/>
      <circle cx="38.75" cy="-24.05" r="0.25"/>
      <circle cx="38.75" cy="-24.7" r="0.25"/>
      <circle cx="39.65" cy="-24.7" r="0.25"/>
      <circle cx="39.65" cy="-24.05" r="0.25"/>
      <rect x="38.425" y="-24.625" width="0.65" height="0.5" transform="rotate(-90.0 38.75 -24.375)"/>
      <rect x="38.75" y="-24.95" width="0.9" height="0.5"/>
      <rect x="39.325" y="-24.625" width="0.65" height="0.5" transform="rotate(90.0 39.65 -24.375)"/>
      <rect x="38.75" y="-24.3" width="0.9" height="0.5" transform="rotate(180.0 39.2 -24.05)"/>
      <path d="M 51.35 -26.1 L 51.35 -26.75 L 52.25 -26.75 L 52.25 -26.1 L 51.35 -26.1"/>
      <circle cx="51.35" cy="-26.1" r="0.25"/>
      <circle cx="51.35" cy="-26.75" r="0.25"/>
      <circle cx="52.25" cy="-26.75" r="0.25"/>
      <circle cx="52.25" cy="-26.1" r="0.25"/>
      <rect x="51.025" y="-26.675" width="0.65" height="0.5" transform="rotate(-90.0 51.35 -26.425)"/>
      <rect x="51.35" y="-27.0" width="0.9" height="0.5"/>
      <rect x="51.925" y="-26.675" width="0.65" height="0.5" transform="rotate(90.0 52.25 -26.425)"/>
      <rect x="51.35" y="-26.35" width="0.9" height="0.5" transform="rotate(180.0 51.8 -26.1)"/>
      <path d="M 51.35 -24.05 L 51.35 -24.7 L 52.25 -24.7 L 52.25 -24.05 L 51.35 -24.05"/>
      <circle cx="51.35" cy="-24.05" r="0.25"/>
      <circle cx="51.35" cy="-24.7" r="0.25"/>
      <circle cx="52.25" cy="-24.7" r="0.25"/>
      <circle cx="52.25" cy="-24.05" r="0.25"/>
      <rect x="51.025" y="-24.625" width="0.65" height="0.5" transform="rotate(-90.0 51.35 -24.375)"/>
      <rect x="51.35" y="-24.95" width="0.9" height="0.5"/>
      <rect x="51.925" y="-24.625" width="0.65" height="0.5" transform="rotate(90.0 52.25 -24.375)"/>
      <rect x="51.35" y="-24.3" width="0.9" height="0.5" transform="rotate(180.0 51.8 -24.05)"/>
      <path d="M 19.605 -23.31 L 20.305 -23.31 L 20.305 -22.41 L 19.605 -22.41 L 19.605 -23.31"/>
      <circle cx="19.605" cy="-23.31" r="0.25"/>
      <circle cx="20.305" cy="-23.31" r="0.25"/>
      <circle cx="20.305" cy="-22.41" r="0.25"/>
      <circle cx="19.605" cy="-22.41" r="0.25"/>
      <rect x="19.605" y="-23.56" width="0.7" height="0.5"/>
      <rect x="19.855" y="-23.11" width="0.9" height="0.5" transform="rotate(90.0 20.305 -22.86)"/>
      <rect x="19.605" y="-22.66" width="0.7" height="0.5" transform="rotate(180.0 19.955 -22.41)"/>
      <rect x="19.155" y="-23.11" width="0.9" height="0.5" transform="rotate(-90.0 19.605 -22.86)"/>
      <path d="M 21.605 -23.31 L 22.305 -23.31 L 22.305 -22.41 L 21.605 -22.41 L 21.605 -23.31"/>
      <circle cx="21.605" cy="-23.31" r="0.25"/>
      <circle cx="22.305" cy="-23.31" r="0.25"/>
      <circle cx="22.305" cy="-22.41" r="0.25"/>
      <circle cx="21.605" cy="-22.41" r="0.25"/>
      <rect x="21.605" y="-23.56" width="0.7" height="0.5"/>
      <rect x="21.855" y="-23.11" width="0.9" height="0.5" transform="rotate(90.0 22.305 -22.86)"/>
      <rect x="21.605" y="-22.66" width="0.7" height="0.5" transform="rotate(180.0 21.955 -22.41)"/>
      <rect x="21.155" y="-23.11" width="0.9" height="0.5" transform="rotate(-90.0 21.605 -22.86)"/>
      <path d="M 19.605 -28.39 L 20.305 -28.39 L 20.305 -27.49 L 19.605 -27.49 L 19.605 -28.39"/>
      <circle cx="19.605" cy="-28.39" r="0.25"/>
      <circle cx="20.305" cy="-28.39" r="0.25"/>
      <circle cx="20.305" cy="-27.49" r="0.25"/>
      <circle cx="19.605" cy="-27.49" r="0.25"/>
      <rect x="19.605" y="-28.64" width="0.7" height="0.5"/>
      <rect x="19.855" y="-28.19" width="0.9" height="0.5" transform="rotate(90.0 20.305 -27.94)"/>
      <rect x="19.605" y="-27.74" width="0.7" height="0.5" transform="rotate(180.0 19.955 -27.49)"/>
      <rect x="19.155" y="-28.19" width="0.9" height="0.5" transform="rotate(-90.0 19.605 -27.94)"/>
      <path d="M 21.605 -28.39 L 22.305 -28.39 L 22.305 -27.49 L 21.605 -27.49 L 21.605 -28.39"/>
      <circle cx="21.605" cy="-28.39" r="0.25"/>
      <circle cx="22.305" cy="-28.39" r="0.25"/>
      <circle cx="22.305" cy="-27.49" r="0.25"/>
      <circle cx="21.605" cy="-27.49" r="0.25"/>
      <rect x="21.605" y="-28.64" width="0.7" height="0.5"/>
      <rect x="21.855" y="-28.19" width="0.9" height="0.5" transform="rotate(90.0 22.305 -27.94)"/>
      <rect x="21.605" y="-27.74" width="0.7" height="0.5" transform="rotate(180.0 21.955 -27.49)"/>
      <rect x="21.155" y="-28.19" width="0.9" height="0.5" transform="rotate(-90.0 21.605 -27.94)"/>
    </g>
    <g id="l-drill-0" filter="url(#f-drill)" stroke-linejoin="round" stroke-linecap="round" transform="translate(0 -50.800000000000004) scale(1 -1)"/>
    <g id="l-drill-1" filter="url(#f-drill)" stroke-linejoin="round" stroke-linecap="round" transform="translate(0 -50.800000000000004) scale(1 -1)"/>
  </g>
</svg>