<svg xmlns="http://www.w3.org/2000/svg" width="1200" height="893" viewBox="0 0 1200 893">
<rect x="0" y="0" width="1200" height="893" fill="#fcfbf7"/>
<line x1="60" y1="96" x2="1140" y2="96" stroke="#20242a" stroke-width="1.4"/>
<text x="60" y="46" font-family="'Helvetica Neue', Helvetica, Arial, sans-serif" font-size="22" font-weight="600" font-style="normal" letter-spacing="0.4" fill="#20242a" text-anchor="start">BARN HALL — MYLAR PANELS + SLEEPING LAYOUT</text>
<text x="60" y="72" font-family="'Helvetica Neue', Helvetica, Arial, sans-serif" font-size="12" font-weight="400" font-style="normal" letter-spacing="0" fill="#6a6459" text-anchor="start">Panel build-out depth and 8 twin mattresses along the long walls</text>
<text x="1140" y="46" font-family="'Helvetica Neue', Helvetica, Arial, sans-serif" font-size="22" font-weight="600" font-style="normal" letter-spacing="0" fill="#9a4a3c" text-anchor="end">A-104</text>
<text x="1140" y="60" font-family="'Helvetica Neue', Helvetica, Arial, sans-serif" font-size="10.5" font-weight="400" font-style="normal" letter-spacing="0" fill="#6a6459" text-anchor="end">8 TWIN MATTRESSES, 38" x 75"</text>
<text x="1140" y="74" font-family="'Helvetica Neue', Helvetica, Arial, sans-serif" font-size="10.5" font-weight="400" font-style="normal" letter-spacing="0" fill="#6a6459" text-anchor="end">Panels project 2 1/2" off each long wall</text>
<text x="1140" y="88" font-family="'Helvetica Neue', Helvetica, Arial, sans-serif" font-size="10.5" font-weight="400" font-style="normal" letter-spacing="0" fill="#6a6459" text-anchor="end">East gable is a full-width mirror, no exit</text>
<line x1="215" y1="138" x2="215" y2="578" stroke="#dbd6ca" stroke-width="0.7"/>
<line x1="325" y1="138" x2="325" y2="578" stroke="#dbd6ca" stroke-width="0.7"/>
<line x1="435" y1="138" x2="435" y2="578" stroke="#dbd6ca" stroke-width="0.7"/>
<line x1="545" y1="138" x2="545" y2="578" stroke="#dbd6ca" stroke-width="0.7"/>
<line x1="655" y1="138" x2="655" y2="578" stroke="#dbd6ca" stroke-width="0.7"/>
<line x1="765" y1="138" x2="765" y2="578" stroke="#dbd6ca" stroke-width="0.7"/>
<line x1="875" y1="138" x2="875" y2="578" stroke="#dbd6ca" stroke-width="0.7"/>
<line x1="985" y1="138" x2="985" y2="578" stroke="#dbd6ca" stroke-width="0.7"/>
<line x1="105" y1="248" x2="1095" y2="248" stroke="#dbd6ca" stroke-width="0.7"/>
<line x1="105" y1="358" x2="1095" y2="358" stroke="#dbd6ca" stroke-width="0.7"/>
<line x1="105" y1="468" x2="1095" y2="468" stroke="#dbd6ca" stroke-width="0.7"/>
<rect x="94" y="127" width="1012" height="11" fill="#2c3138"/>
<rect x="94" y="578" width="1012" height="11" fill="#2c3138"/>
<rect x="94" y="138" width="11" height="440" fill="#2c3138"/>
<rect x="1095" y="138" width="11" height="440" fill="#2c3138"/>
<rect x="149" y="127" width="66" height="11" fill="#fcfbf7"/>
<line x1="149" y1="132.5" x2="215" y2="132.5" stroke="#20242a" stroke-width="1"/>
<rect x="149" y="127" width="66" height="11" fill="none" stroke="#20242a" stroke-width="0.8"/>
<rect x="149" y="578" width="66" height="11" fill="#fcfbf7"/>
<line x1="149" y1="583.5" x2="215" y2="583.5" stroke="#20242a" stroke-width="1"/>
<rect x="149" y="578" width="66" height="11" fill="none" stroke="#20242a" stroke-width="0.8"/>
<rect x="281" y="127" width="66" height="11" fill="#fcfbf7"/>
<line x1="281" y1="132.5" x2="347" y2="132.5" stroke="#20242a" stroke-width="1"/>
<rect x="281" y="127" width="66" height="11" fill="none" stroke="#20242a" stroke-width="0.8"/>
<rect x="281" y="578" width="66" height="11" fill="#fcfbf7"/>
<line x1="281" y1="583.5" x2="347" y2="583.5" stroke="#20242a" stroke-width="1"/>
<rect x="281" y="578" width="66" height="11" fill="none" stroke="#20242a" stroke-width="0.8"/>
<rect x="413" y="127" width="66" height="11" fill="#fcfbf7"/>
<line x1="413" y1="132.5" x2="479" y2="132.5" stroke="#20242a" stroke-width="1"/>
<rect x="413" y="127" width="66" height="11" fill="none" stroke="#20242a" stroke-width="0.8"/>
<rect x="413" y="578" width="66" height="11" fill="#fcfbf7"/>
<line x1="413" y1="583.5" x2="479" y2="583.5" stroke="#20242a" stroke-width="1"/>
<rect x="413" y="578" width="66" height="11" fill="none" stroke="#20242a" stroke-width="0.8"/>
<rect x="545" y="127" width="66" height="11" fill="#fcfbf7"/>
<line x1="545" y1="132.5" x2="611" y2="132.5" stroke="#20242a" stroke-width="1"/>
<rect x="545" y="127" width="66" height="11" fill="none" stroke="#20242a" stroke-width="0.8"/>
<rect x="545" y="578" width="66" height="11" fill="#fcfbf7"/>
<line x1="545" y1="583.5" x2="611" y2="583.5" stroke="#20242a" stroke-width="1"/>
<rect x="545" y="578" width="66" height="11" fill="none" stroke="#20242a" stroke-width="0.8"/>
<rect x="677" y="127" width="66" height="11" fill="#fcfbf7"/>
<line x1="677" y1="132.5" x2="743" y2="132.5" stroke="#20242a" stroke-width="1"/>
<rect x="677" y="127" width="66" height="11" fill="none" stroke="#20242a" stroke-width="0.8"/>
<rect x="677" y="578" width="66" height="11" fill="#fcfbf7"/>
<line x1="677" y1="583.5" x2="743" y2="583.5" stroke="#20242a" stroke-width="1"/>
<rect x="677" y="578" width="66" height="11" fill="none" stroke="#20242a" stroke-width="0.8"/>
<rect x="809" y="127" width="66" height="11" fill="#fcfbf7"/>
<line x1="809" y1="132.5" x2="875" y2="132.5" stroke="#20242a" stroke-width="1"/>
<rect x="809" y="127" width="66" height="11" fill="none" stroke="#20242a" stroke-width="0.8"/>
<rect x="809" y="578" width="66" height="11" fill="#fcfbf7"/>
<line x1="809" y1="583.5" x2="875" y2="583.5" stroke="#20242a" stroke-width="1"/>
<rect x="809" y="578" width="66" height="11" fill="none" stroke="#20242a" stroke-width="0.8"/>
<rect x="941" y="127" width="66" height="11" fill="#fcfbf7"/>
<line x1="941" y1="132.5" x2="1007" y2="132.5" stroke="#20242a" stroke-width="1"/>
<rect x="941" y="127" width="66" height="11" fill="none" stroke="#20242a" stroke-width="0.8"/>
<rect x="941" y="578" width="66" height="11" fill="#fcfbf7"/>
<line x1="941" y1="583.5" x2="1007" y2="583.5" stroke="#20242a" stroke-width="1"/>
<rect x="941" y="578" width="66" height="11" fill="none" stroke="#20242a" stroke-width="0.8"/>
<rect x="94" y="292" width="11" height="132" fill="#fcfbf7"/>
<path d="M 105 292 A 66 66 0 0 1 171 358" fill="none" stroke="#8a8578" stroke-width="0.8"/>
<path d="M 105 424 A 66 66 0 0 0 171 358" fill="none" stroke="#8a8578" stroke-width="0.8"/>
<line x1="105" y1="292" x2="105" y2="424" stroke="#20242a" stroke-width="1.6"/>
<rect x="1089.5" y="138" width="5.5" height="440" fill="#cfd8dc" stroke="#78909c" stroke-width="1"/>
<line x1="1089.5" y1="151.2" x2="1095" y2="140.2" stroke="#78909c" stroke-width="0.6"/>
<line x1="1089.5" y1="177.6" x2="1095" y2="166.6" stroke="#78909c" stroke-width="0.6"/>
<line x1="1089.5" y1="204" x2="1095" y2="193" stroke="#78909c" stroke-width="0.6"/>
<line x1="1089.5" y1="230.4" x2="1095" y2="219.4" stroke="#78909c" stroke-width="0.6"/>
<line x1="1089.5" y1="256.8" x2="1095" y2="245.8" stroke="#78909c" stroke-width="0.6"/>
<line x1="1089.5" y1="283.2" x2="1095" y2="272.2" stroke="#78909c" stroke-width="0.6"/>
<line x1="1089.5" y1="309.6" x2="1095" y2="298.6" stroke="#78909c" stroke-width="0.6"/>
<line x1="1089.5" y1="336" x2="1095" y2="325" stroke="#78909c" stroke-width="0.6"/>
<line x1="1089.5" y1="362.4" x2="1095" y2="351.4" stroke="#78909c" stroke-width="0.6"/>
<line x1="1089.5" y1="388.8" x2="1095" y2="377.8" stroke="#78909c" stroke-width="0.6"/>
<line x1="1089.5" y1="415.2" x2="1095" y2="404.2" stroke="#78909c" stroke-width="0.6"/>
<line x1="1089.5" y1="441.6" x2="1095" y2="430.6" stroke="#78909c" stroke-width="0.6"/>
<line x1="1089.5" y1="468" x2="1095" y2="457" stroke="#78909c" stroke-width="0.6"/>
<line x1="1089.5" y1="494.4" x2="1095" y2="483.4" stroke="#78909c" stroke-width="0.6"/>
<line x1="1089.5" y1="520.8" x2="1095" y2="509.8" stroke="#78909c" stroke-width="0.6"/>
<line x1="1089.5" y1="547.2" x2="1095" y2="536.2" stroke="#78909c" stroke-width="0.6"/>
<line x1="1089.5" y1="573.6" x2="1095" y2="562.6" stroke="#78909c" stroke-width="0.6"/>
<rect x="105" y="138" width="990" height="440" fill="none" stroke="#20242a" stroke-width="1.2"/>
<rect x="105" y="138" width="990" height="4.58" fill="#c9b6d8" stroke="#7d5f96" stroke-width="0.9"/>
<rect x="105" y="573.42" width="990" height="4.58" fill="#c9b6d8" stroke="#7d5f96" stroke-width="0.9"/>
<line x1="163.67" y1="138" x2="163.67" y2="142.58" stroke="#7d5f96" stroke-width="0.7"/>
<line x1="163.67" y1="573.42" x2="163.67" y2="578" stroke="#7d5f96" stroke-width="0.7"/>
<line x1="222.33" y1="138" x2="222.33" y2="142.58" stroke="#7d5f96" stroke-width="0.7"/>
<line x1="222.33" y1="573.42" x2="222.33" y2="578" stroke="#7d5f96" stroke-width="0.7"/>
<line x1="281" y1="138" x2="281" y2="142.58" stroke="#7d5f96" stroke-width="0.7"/>
<line x1="281" y1="573.42" x2="281" y2="578" stroke="#7d5f96" stroke-width="0.7"/>
<line x1="339.67" y1="138" x2="339.67" y2="142.58" stroke="#7d5f96" stroke-width="0.7"/>
<line x1="339.67" y1="573.42" x2="339.67" y2="578" stroke="#7d5f96" stroke-width="0.7"/>
<line x1="398.33" y1="138" x2="398.33" y2="142.58" stroke="#7d5f96" stroke-width="0.7"/>
<line x1="398.33" y1="573.42" x2="398.33" y2="578" stroke="#7d5f96" stroke-width="0.7"/>
<line x1="457" y1="138" x2="457" y2="142.58" stroke="#7d5f96" stroke-width="0.7"/>
<line x1="457" y1="573.42" x2="457" y2="578" stroke="#7d5f96" stroke-width="0.7"/>
<line x1="515.67" y1="138" x2="515.67" y2="142.58" stroke="#7d5f96" stroke-width="0.7"/>
<line x1="515.67" y1="573.42" x2="515.67" y2="578" stroke="#7d5f96" stroke-width="0.7"/>
<line x1="574.33" y1="138" x2="574.33" y2="142.58" stroke="#7d5f96" stroke-width="0.7"/>
<line x1="574.33" y1="573.42" x2="574.33" y2="578" stroke="#7d5f96" stroke-width="0.7"/>
<line x1="633" y1="138" x2="633" y2="142.58" stroke="#7d5f96" stroke-width="0.7"/>
<line x1="633" y1="573.42" x2="633" y2="578" stroke="#7d5f96" stroke-width="0.7"/>
<line x1="691.67" y1="138" x2="691.67" y2="142.58" stroke="#7d5f96" stroke-width="0.7"/>
<line x1="691.67" y1="573.42" x2="691.67" y2="578" stroke="#7d5f96" stroke-width="0.7"/>
<line x1="750.33" y1="138" x2="750.33" y2="142.58" stroke="#7d5f96" stroke-width="0.7"/>
<line x1="750.33" y1="573.42" x2="750.33" y2="578" stroke="#7d5f96" stroke-width="0.7"/>
<line x1="809" y1="138" x2="809" y2="142.58" stroke="#7d5f96" stroke-width="0.7"/>
<line x1="809" y1="573.42" x2="809" y2="578" stroke="#7d5f96" stroke-width="0.7"/>
<line x1="867.67" y1="138" x2="867.67" y2="142.58" stroke="#7d5f96" stroke-width="0.7"/>
<line x1="867.67" y1="573.42" x2="867.67" y2="578" stroke="#7d5f96" stroke-width="0.7"/>
<line x1="926.33" y1="138" x2="926.33" y2="142.58" stroke="#7d5f96" stroke-width="0.7"/>
<line x1="926.33" y1="573.42" x2="926.33" y2="578" stroke="#7d5f96" stroke-width="0.7"/>
<line x1="985" y1="138" x2="985" y2="142.58" stroke="#7d5f96" stroke-width="0.7"/>
<line x1="985" y1="573.42" x2="985" y2="578" stroke="#7d5f96" stroke-width="0.7"/>
<line x1="1043.67" y1="138" x2="1043.67" y2="142.58" stroke="#7d5f96" stroke-width="0.7"/>
<line x1="1043.67" y1="573.42" x2="1043.67" y2="578" stroke="#7d5f96" stroke-width="0.7"/>
<rect x="105" y="212.25" width="990" height="291.5" fill="#cfe3ea" fill-opacity="0.5" stroke="#8fb6c4" stroke-width="0.8" stroke-dasharray="5 3"/>
<rect x="193" y="142.58" width="137.5" height="69.67" fill="#eef2f5" stroke="#8a9aa6" stroke-width="1" rx="4.4"/>
<rect x="193" y="503.75" width="137.5" height="69.67" fill="#eef2f5" stroke="#8a9aa6" stroke-width="1" rx="4.4"/>
<rect x="418.5" y="142.58" width="137.5" height="69.67" fill="#eef2f5" stroke="#8a9aa6" stroke-width="1" rx="4.4"/>
<rect x="418.5" y="503.75" width="137.5" height="69.67" fill="#eef2f5" stroke="#8a9aa6" stroke-width="1" rx="4.4"/>
<rect x="644" y="142.58" width="137.5" height="69.67" fill="#eef2f5" stroke="#8a9aa6" stroke-width="1" rx="4.4"/>
<rect x="644" y="503.75" width="137.5" height="69.67" fill="#eef2f5" stroke="#8a9aa6" stroke-width="1" rx="4.4"/>
<rect x="869.5" y="142.58" width="137.5" height="69.67" fill="#eef2f5" stroke="#8a9aa6" stroke-width="1" rx="4.4"/>
<rect x="869.5" y="503.75" width="137.5" height="69.67" fill="#eef2f5" stroke="#8a9aa6" stroke-width="1" rx="4.4"/>
<rect x="345.17" y="350.67" width="14.67" height="14.67" fill="#2c3138" stroke="#20242a" stroke-width="0.8"/>
<rect x="592.67" y="350.67" width="14.67" height="14.67" fill="#2c3138" stroke="#20242a" stroke-width="0.8"/>
<rect x="840.17" y="350.67" width="14.67" height="14.67" fill="#2c3138" stroke="#20242a" stroke-width="0.8"/>
<line x1="105" y1="358" x2="1095" y2="358" stroke="#9a4a3c" stroke-width="0.6" stroke-dasharray="10 4 2 4" opacity="0.55"/>
<line x1="105" y1="652" x2="1095" y2="652" stroke="#8a8578" stroke-width="0.8"/>
<line x1="101" y1="656" x2="109" y2="648" stroke="#8a8578" stroke-width="0.9"/>
<line x1="1091" y1="656" x2="1099" y2="648" stroke="#8a8578" stroke-width="0.9"/>
<rect x="570" y="644" width="60" height="12" fill="#fcfbf7"/>
<text x="600" y="654" font-family="'Helvetica Neue', Helvetica, Arial, sans-serif" font-size="10.5" font-weight="400" font-style="normal" letter-spacing="0" fill="#8a8578" text-anchor="middle">45'-0"  OVERALL</text>
<line x1="105" y1="622" x2="193" y2="622" stroke="#8a8578" stroke-width="0.8"/>
<line x1="101" y1="626" x2="109" y2="618" stroke="#8a8578" stroke-width="0.9"/>
<line x1="189" y1="626" x2="197" y2="618" stroke="#8a8578" stroke-width="0.9"/>
<rect x="119" y="614" width="60" height="12" fill="#fcfbf7"/>
<text x="149" y="624" font-family="'Helvetica Neue', Helvetica, Arial, sans-serif" font-size="10.5" font-weight="400" font-style="normal" letter-spacing="0" fill="#8a8578" text-anchor="middle">4'-0"</text>
<line x1="193" y1="622" x2="330.5" y2="622" stroke="#8a8578" stroke-width="0.8"/>
<line x1="189" y1="626" x2="197" y2="618" stroke="#8a8578" stroke-width="0.9"/>
<line x1="326.5" y1="626" x2="334.5" y2="618" stroke="#8a8578" stroke-width="0.9"/>
<rect x="231.75" y="614" width="60" height="12" fill="#fcfbf7"/>
<text x="261.75" y="624" font-family="'Helvetica Neue', Helvetica, Arial, sans-serif" font-size="10.5" font-weight="400" font-style="normal" letter-spacing="0" fill="#8a8578" text-anchor="middle">6'-3"</text>
<line x1="330.5" y1="622" x2="418.5" y2="622" stroke="#8a8578" stroke-width="0.8"/>
<line x1="326.5" y1="626" x2="334.5" y2="618" stroke="#8a8578" stroke-width="0.9"/>
<line x1="414.5" y1="626" x2="422.5" y2="618" stroke="#8a8578" stroke-width="0.9"/>
<rect x="344.5" y="614" width="60" height="12" fill="#fcfbf7"/>
<text x="374.5" y="624" font-family="'Helvetica Neue', Helvetica, Arial, sans-serif" font-size="10.5" font-weight="400" font-style="normal" letter-spacing="0" fill="#8a8578" text-anchor="middle">4'-0"</text>
<line x1="1007" y1="622" x2="1095" y2="622" stroke="#8a8578" stroke-width="0.8"/>
<line x1="1003" y1="626" x2="1011" y2="618" stroke="#8a8578" stroke-width="0.9"/>
<line x1="1091" y1="626" x2="1099" y2="618" stroke="#8a8578" stroke-width="0.9"/>
<rect x="1021" y="614" width="60" height="12" fill="#fcfbf7"/>
<text x="1051" y="624" font-family="'Helvetica Neue', Helvetica, Arial, sans-serif" font-size="10.5" font-weight="400" font-style="normal" letter-spacing="0" fill="#8a8578" text-anchor="middle">4'-0"</text>
<line x1="61" y1="142.58" x2="61" y2="212.25" stroke="#8a8578" stroke-width="0.8"/>
<line x1="57" y1="146.58" x2="65" y2="138.58" stroke="#8a8578" stroke-width="0.9"/>
<line x1="57" y1="216.25" x2="65" y2="208.25" stroke="#8a8578" stroke-width="0.9"/>
<g transform="translate(61 177.42) rotate(-90)"><rect x="-30" y="-8" width="60" height="12" fill="#fcfbf7"/><text x="0" y="2" font-family="'Helvetica Neue', Helvetica, Arial, sans-serif" font-size="10.5" font-weight="400" font-style="normal" letter-spacing="0" fill="#8a8578" text-anchor="middle">3'-2"</text></g>
<line x1="61" y1="212.25" x2="61" y2="503.75" stroke="#8a8578" stroke-width="0.8"/>
<line x1="57" y1="216.25" x2="65" y2="208.25" stroke="#8a8578" stroke-width="0.9"/>
<line x1="57" y1="507.75" x2="65" y2="499.75" stroke="#8a8578" stroke-width="0.9"/>
<g transform="translate(61 358) rotate(-90)"><rect x="-30" y="-8" width="60" height="12" fill="#fcfbf7"/><text x="0" y="2" font-family="'Helvetica Neue', Helvetica, Arial, sans-serif" font-size="10.5" font-weight="400" font-style="normal" letter-spacing="0" fill="#8a8578" text-anchor="middle">13'-3" AISLE</text></g>
<line x1="61" y1="503.75" x2="61" y2="573.42" stroke="#8a8578" stroke-width="0.8"/>
<line x1="57" y1="507.75" x2="65" y2="499.75" stroke="#8a8578" stroke-width="0.9"/>
<line x1="57" y1="577.42" x2="65" y2="569.42" stroke="#8a8578" stroke-width="0.9"/>
<g transform="translate(61 538.58) rotate(-90)"><rect x="-30" y="-8" width="60" height="12" fill="#fcfbf7"/><text x="0" y="2" font-family="'Helvetica Neue', Helvetica, Arial, sans-serif" font-size="10.5" font-weight="400" font-style="normal" letter-spacing="0" fill="#8a8578" text-anchor="middle">3'-2"</text></g>
<line x1="1157" y1="138" x2="1157" y2="578" stroke="#8a8578" stroke-width="0.8"/>
<line x1="1153" y1="142" x2="1161" y2="134" stroke="#8a8578" stroke-width="0.9"/>
<line x1="1153" y1="582" x2="1161" y2="574" stroke="#8a8578" stroke-width="0.9"/>
<g transform="translate(1157 358) rotate(-90)"><rect x="-30" y="-8" width="60" height="12" fill="#fcfbf7"/><text x="0" y="2" font-family="'Helvetica Neue', Helvetica, Arial, sans-serif" font-size="10.5" font-weight="400" font-style="normal" letter-spacing="0" fill="#8a8578" text-anchor="middle">20'-0"  OVERALL</text></g>
<line x1="567" y1="142.58" x2="602.2" y2="105" stroke="#9a4a3c" stroke-width="0.8"/>
<text x="608.8" y="108.5" font-family="'Helvetica Neue', Helvetica, Arial, sans-serif" font-size="10" font-weight="600" font-style="normal" letter-spacing="0.6" fill="#9a4a3c" text-anchor="start">MYLAR PANEL BUILD-OUT — 0'-3" (2 1/2") OFF WALL FACE</text>
<text x="1070.8" y="358" font-family="'Helvetica Neue', Helvetica, Arial, sans-serif" font-size="10" font-weight="600" font-style="normal" letter-spacing="1" fill="#78909c" text-anchor="middle">MIRROR WALL</text>
<text x="184.2" y="278.8" font-family="'Helvetica Neue', Helvetica, Arial, sans-serif" font-size="10" font-weight="600" font-style="normal" letter-spacing="0" fill="#9a4a3c" text-anchor="start">SOLE EXIT 6'-0"</text>
<text x="600" y="300.8" font-family="'Helvetica Neue', Helvetica, Arial, sans-serif" font-size="13" font-weight="600" font-style="normal" letter-spacing="1.5" fill="#20242a" text-anchor="middle">8 TWIN MATTRESSES</text>
<text x="600" y="426.2" font-family="'Helvetica Neue', Helvetica, Arial, sans-serif" font-size="10" font-weight="400" font-style="normal" letter-spacing="1" fill="#6a6459" text-anchor="middle">13'-3" CLEAR CENTER AISLE</text>
<text x="60" y="700" font-family="'Helvetica Neue', Helvetica, Arial, sans-serif" font-size="10" font-weight="600" font-style="normal" letter-spacing="1.1" fill="#20242a" text-anchor="start">PANELS</text>
<rect x="60" y="712" width="13" height="10" fill="#c9b6d8" stroke="#7d5f96" stroke-width="0.7"/>
<text x="80" y="720" font-family="'Helvetica Neue', Helvetica, Arial, sans-serif" font-size="10.5" font-weight="400" font-style="normal" letter-spacing="0" fill="#6a6459" text-anchor="start">32" sq mylar panel, 2 1/2" deep</text>
<text x="60" y="737" font-family="'Helvetica Neue', Helvetica, Arial, sans-serif" font-size="10.5" font-weight="400" font-style="normal" letter-spacing="0" fill="#6a6459" text-anchor="start">1x2 stretcher frame + z-clip cleat</text>
<text x="60" y="754" font-family="'Helvetica Neue', Helvetica, Arial, sans-serif" font-size="10.5" font-weight="400" font-style="normal" letter-spacing="0" fill="#6a6459" text-anchor="start">3 courses reach 8'-0"; 48 columns per long wall</text>
<text x="60" y="771" font-family="'Helvetica Neue', Helvetica, Arial, sans-serif" font-size="10.5" font-weight="400" font-style="normal" letter-spacing="0" fill="#6a6459" text-anchor="start">Clear floor now 45'-0" x 19'-7"</text>
<text x="360" y="700" font-family="'Helvetica Neue', Helvetica, Arial, sans-serif" font-size="10" font-weight="600" font-style="normal" letter-spacing="1.1" fill="#20242a" text-anchor="start">MATTRESSES</text>
<rect x="360" y="712" width="13" height="10" fill="#eef2f5" stroke="#8a9aa6" stroke-width="0.7"/>
<text x="380" y="720" font-family="'Helvetica Neue', Helvetica, Arial, sans-serif" font-size="10.5" font-weight="400" font-style="normal" letter-spacing="0" fill="#6a6459" text-anchor="start">Twin mattress, 38" x 75"</text>
<text x="360" y="737" font-family="'Helvetica Neue', Helvetica, Arial, sans-serif" font-size="10.5" font-weight="600" font-style="normal" letter-spacing="0" fill="#20242a" text-anchor="start">4 per long wall, long axis parallel to wall</text>
<text x="360" y="754" font-family="'Helvetica Neue', Helvetica, Arial, sans-serif" font-size="10.5" font-weight="400" font-style="normal" letter-spacing="0" fill="#6a6459" text-anchor="start">4'-0" between mattresses</text>
<text x="360" y="771" font-family="'Helvetica Neue', Helvetica, Arial, sans-serif" font-size="10.5" font-weight="400" font-style="normal" letter-spacing="0" fill="#6a6459" text-anchor="start">13'-3" clear center aisle</text>
<text x="660" y="700" font-family="'Helvetica Neue', Helvetica, Arial, sans-serif" font-size="10" font-weight="600" font-style="normal" letter-spacing="1.1" fill="#20242a" text-anchor="start">EGRESS WARNING</text>
<text x="660" y="720" font-family="'Helvetica Neue', Helvetica, Arial, sans-serif" font-size="10.5" font-weight="600" font-style="normal" letter-spacing="0" fill="#20242a" text-anchor="start">Removing the east exit leaves ONE way out.</text>
<text x="660" y="737" font-family="'Helvetica Neue', Helvetica, Arial, sans-serif" font-size="10.5" font-weight="400" font-style="normal" letter-spacing="0" fill="#6a6459" text-anchor="start">IBC requires 2 exits above 49 occupants, so the</text>
<text x="660" y="754" font-family="'Helvetica Neue', Helvetica, Arial, sans-serif" font-size="10.5" font-weight="400" font-style="normal" letter-spacing="0" fill="#6a6459" text-anchor="start">75-person load on A-102 is no longer permissible.</text>
<text x="660" y="771" font-family="'Helvetica Neue', Helvetica, Arial, sans-serif" font-size="10.5" font-weight="400" font-style="normal" letter-spacing="0" fill="#6a6459" text-anchor="start">Single 6'-0" door caps this room near 49 people.</text>
<text x="60" y="808" font-family="'Helvetica Neue', Helvetica, Arial, sans-serif" font-size="9" font-weight="400" font-style="normal" letter-spacing="1.2" fill="#6a6459" text-anchor="start">SCALE</text>
<rect x="60" y="816" width="110" height="7" fill="#20242a" stroke="#20242a" stroke-width="0.7"/>
<rect x="170" y="816" width="110" height="7" fill="#fcfbf7" stroke="#20242a" stroke-width="0.7"/>
<rect x="280" y="816" width="110" height="7" fill="#20242a" stroke="#20242a" stroke-width="0.7"/>
<rect x="390" y="816" width="110" height="7" fill="#fcfbf7" stroke="#20242a" stroke-width="0.7"/>
<text x="60" y="836" font-family="'Helvetica Neue', Helvetica, Arial, sans-serif" font-size="9" font-weight="400" font-style="normal" letter-spacing="0" fill="#6a6459" text-anchor="middle">0</text>
<text x="170" y="836" font-family="'Helvetica Neue', Helvetica, Arial, sans-serif" font-size="9" font-weight="400" font-style="normal" letter-spacing="0" fill="#6a6459" text-anchor="middle">5</text>
<text x="280" y="836" font-family="'Helvetica Neue', Helvetica, Arial, sans-serif" font-size="9" font-weight="400" font-style="normal" letter-spacing="0" fill="#6a6459" text-anchor="middle">10</text>
<text x="390" y="836" font-family="'Helvetica Neue', Helvetica, Arial, sans-serif" font-size="9" font-weight="400" font-style="normal" letter-spacing="0" fill="#6a6459" text-anchor="middle">15</text>
<text x="500" y="836" font-family="'Helvetica Neue', Helvetica, Arial, sans-serif" font-size="9" font-weight="400" font-style="normal" letter-spacing="0" fill="#6a6459" text-anchor="middle">20</text>
<text x="512" y="836" font-family="'Helvetica Neue', Helvetica, Arial, sans-serif" font-size="9" font-weight="400" font-style="normal" letter-spacing="0" fill="#6a6459" text-anchor="start">FEET</text>
<circle cx="1110" cy="796" r="17" fill="none" stroke="#6a6459" stroke-width="0.9"/><path d="M 1110 783 L 1116 807 L 1110 802 L 1104 807 Z" fill="#20242a"/><text x="1110" y="775" font-family="'Helvetica Neue', Helvetica, Arial, sans-serif" font-size="10" font-weight="600" font-style="normal" letter-spacing="0" fill="#6a6459" text-anchor="middle">N</text>
</svg>
